<?xml version="1.0" standalone="no"?>
<!DOCTYPE svg PUBLIC "-//W3C//DTD SVG 20010904//EN"
 "http://www.w3.org/TR/2001/REC-SVG-20010904/DTD/svg10.dtd">
<svg version="1.0" xmlns="http://www.w3.org/2000/svg"
 width="1280.000000pt" height="978.000000pt" viewBox="0 0 1280.000000 978.000000"
 preserveAspectRatio="xMidYMid meet">
<g transform="translate(0.000000,978.000000) scale(0.100000,-0.100000)"
fill="#ffc107" stroke="none">
<path d="M6250 9719 c-181 -71 -204 -81 -995 -385 -396 -152 -801 -308 -900
-346 -99 -38 -214 -82 -255 -98 -41 -15 -127 -48 -190 -73 -63 -25 -212 -82
-330 -128 -118 -45 -278 -106 -355 -136 -77 -30 -192 -74 -255 -98 -63 -24
-178 -68 -255 -98 -77 -30 -237 -91 -355 -136 -118 -46 -253 -98 -300 -116
-91 -35 -204 -79 -390 -150 -63 -24 -191 -74 -285 -110 -93 -37 -222 -86 -285
-110 -63 -24 -178 -68 -255 -98 -77 -30 -295 -113 -485 -186 -190 -73 -349
-136 -353 -141 -5 -4 9 -14 30 -23 21 -8 198 -89 393 -180 195 -90 375 -174
400 -185 25 -11 86 -39 135 -62 50 -23 119 -56 155 -72 208 -96 446 -206 520
-240 47 -22 132 -62 190 -88 58 -26 197 -90 310 -142 113 -53 230 -107 260
-121 30 -13 96 -44 145 -67 50 -23 110 -51 135 -62 141 -64 627 -289 640 -297
13 -7 15 -198 18 -1602 1 -877 0 -1603 -2 -1614 -3 -11 -21 -29 -41 -39 -50
-27 -112 -98 -141 -161 -73 -159 -43 -328 80 -450 l55 -56 -43 -67 c-213 -330
-343 -906 -370 -1639 -3 -99 -2 -133 7 -133 7 0 55 43 107 95 l94 95 102 -100
c55 -55 105 -100 109 -100 4 0 54 45 110 101 l103 101 104 -101 104 -100 104
104 105 105 100 -100 c55 -55 105 -100 110 -100 20 0 -3 463 -35 710 -63 483
-169 810 -359 1106 -12 18 -9 25 41 75 30 30 67 81 84 114 27 55 29 69 29 170
0 93 -3 118 -23 159 -32 69 -86 133 -149 172 l-53 35 0 269 c0 149 3 270 6
270 4 0 52 -33 108 -74 537 -391 1174 -667 1811 -785 446 -82 974 -86 1418
-10 521 89 830 190 1276 417 377 191 635 348 944 575 l107 79 0 1207 0 1208
93 43 c50 24 133 62 182 85 50 23 113 53 140 65 28 12 174 80 325 150 151 70
302 140 335 155 33 15 206 95 385 177 371 172 435 201 505 233 28 12 88 41
135 63 81 37 248 115 390 180 36 16 99 45 140 64 41 20 95 45 120 56 25 12
191 89 370 171 179 83 326 154 328 159 1 5 -35 23 -80 40 -46 17 -166 63 -268
102 -102 39 -237 91 -300 115 -63 24 -180 69 -260 100 -80 31 -197 76 -260
100 -63 24 -191 74 -285 110 -93 37 -192 75 -220 85 -27 10 -126 48 -220 85
-93 36 -222 86 -285 110 -63 24 -180 69 -260 100 -80 31 -197 76 -260 100 -63
24 -180 69 -260 100 -80 31 -215 83 -300 115 -85 32 -202 77 -260 100 -58 23
-157 61 -220 85 -63 24 -191 73 -285 110 -93 37 -192 75 -220 85 -27 10 -144
55 -260 100 -115 45 -262 101 -325 125 -63 24 -180 69 -260 100 -80 31 -197
76 -260 100 -63 24 -180 69 -260 100 -80 31 -197 76 -260 100 -63 24 -203 78
-310 119 -107 42 -204 76 -215 75 -11 0 -76 -23 -145 -50z"/>
</g>
</svg>
